<svg id="Laag_1" data-name="Laag 1" xmlns="http://www.w3.org/2000/svg" xmlns:xlink="http://www.w3.org/1999/xlink" viewBox="0 0 1619.91 643.64"><defs><style>.cls-1{fill:none;}.cls-2{clip-path:url(#clip-path);}.cls-3{clip-path:url(#clip-path-2);}.cls-4{fill:#fff;}.cls-5{clip-path:url(#clip-path-4);}</style><clipPath id="clip-path"><polygon class="cls-1" points="553.25 36.01 938.13 36.01 921.23 420.88 536.35 420.88 553.25 36.01"/></clipPath><clipPath id="clip-path-2"><rect class="cls-1" x="563.92" y="205.09" width="286.36" height="243.74"/></clipPath><clipPath id="clip-path-4"><polygon class="cls-1" points="746.52 473.8 639.73 473.8 639.73 16.83 9.36 16.83 9.36 656.58 639.73 656.58 639.73 632.26 746.52 632.26 746.52 473.8"/></clipPath></defs><title>LogoWit</title><g class="cls-2"><g id="wit_manneken.psd" data-name="wit manneken.psd"><g class="cls-3"><g class="cls-3"><path class="cls-4" d="M761.61,342.67a46,46,0,0,1-1.86,7.64c-6.75,22.42-27.32,38.42-50.14,38.25-21.52-.15-38.72-8.85-48.23-28.09-17.58-35.54,3.59-73.05,39.08-78.26,30.14-4.42,51.78,14,59,37.31a46.88,46.88,0,0,1,2.1,8.21,61.72,61.72,0,0,1,0,14.94M721,347.33c5.73-2.57,7.33-4.39,6.8-7.63-.44-2.72-3.23-5.39-5.92-5.44-3.16-.06-4.72,2.38-6,4.63-1.42,2.46.25,5,5.14,8.44m-20.6,3.35c0-3.55-2.06-5.73-5.14-5.56s-6.64,3-6.77,5.37c-.14,2.57,3.81,6.54,6.49,6.52,3,0,5.46-2.85,5.42-6.33m-19.25-30c-2.75.06-5.72,3.44-5.61,6.38.14,3.46,3.21,6.4,6.4,6.16,2.91-.23,4.89-2.79,4.75-6.13s-2.87-6.47-5.54-6.41M742,324c-1.22,2.36-2.67,4.36-3.3,6.59-.77,2.72,2,6.06,4.55,6.18,2.1.11,4.33-2.28,4.38-5.05.07-3.29-1.1-6-5.63-7.72m-33.16-7.25c3.14.07,5.15-1.48,5.15-4s-2.69-5.42-4.94-5.53c-2.41-.12-5.73,3.16-5.65,5.58.07,2.08,2.52,3.85,5.44,3.92m7.72,53.21c-6.13-4.87-9.86-4.5-13.19,1,5.8,3.73,8.17,3.61,13.19-1m22.34-62.08c.09-2.62-3.61-7.18-6-7.36-2.18-.18-3.39,1.56-2.57,3.09a19.41,19.41,0,0,0,5.29,6.3c1.66,1.24,3-.3,3.24-2M672.7,353.33c-.65,6.6.86,8.86,6.64,10.52.32-4.91-1.72-8.12-6.64-10.52M670.07,313c4.88-2.12,7.32-5,7.59-9.89-5.47.9-7.4,3.34-7.59,9.89m69.22,49.6c4.45-3.43,7.35-6.08,6.68-11.53-4.67,2.17-7,5.14-6.68,11.53M702.14,291c-7.43-1.18-9.39-.4-11.25,4.09,4.34,1.06,7.9.2,11.25-4.09m-41,44.38c1.17-4.22,1.72-7-.19-10.51-1.86,3.63-1.9,6.33.19,10.51m93.73-13.62-1.54-.09c.41,2,.81,3.9,1.22,5.84l.85-.11c-.18-1.88-.35-3.76-.53-5.64m-61.64,59.88.79-1.4-5.69-1.73-.36,1.13,5.26,2"/></g></g></g></g><path class="cls-4" d="M559.66,128.94h39.65q19.23,0,30,8.42T640,164q0,17.93-10.81,26.57t-29.87,8.65H576.83v37.85H559.66Zm37.25,57.16q13.22,0,19.74-5.4t6.52-16.53q0-11.28-6.27-16.69t-20-5.4H576.83v44Z"/><path class="cls-4" d="M680.82,232.29a48.76,48.76,0,0,1-19.13-19.69q-6.87-12.75-6.87-29.59t6.87-29.58a48.79,48.79,0,0,1,19.13-19.7,59.4,59.4,0,0,1,55.76,0,48.75,48.75,0,0,1,19.14,19.7q6.87,12.75,6.87,29.58t-6.87,29.59a48.72,48.72,0,0,1-19.14,19.69,59.4,59.4,0,0,1-55.76,0Zm48.66-12.74a34,34,0,0,0,12.88-15,56.15,56.15,0,0,0,0-43.1,34,34,0,0,0-12.88-15Q720.89,141,708.7,141t-20.77,5.49a33.89,33.89,0,0,0-12.88,15,56.15,56.15,0,0,0,0,43.1,33.92,33.92,0,0,0,12.88,15q8.6,5.47,20.77,5.48T729.48,219.55Z"/><path class="cls-4" d="M769.52,128.94h17.16l25.41,89.14,29.35-87H858.6l29.35,87,25.4-89.14h17.17l-34,108.14H879.2l-29.18-87-29.18,87H803.5Z"/><path class="cls-4" d="M944.94,128.94h73.29v13.29h-57V173.9h45.32v13.29H961.24v36.6h58.53v13.29H944.94Z"/><path class="cls-4" d="M1040,128.94h39q19.57,0,30.56,8.12t11,24.79q0,21.63-20.94,30.43l27,44.8h-19.91l-24.38-42.17h-25.06v42.17H1040Zm38.79,52.84q12,0,18.36-5.26t6.36-14.67q0-9.42-6.27-14.6t-18.45-5.17h-21.63v39.7Z"/><path class="cls-4" d="M1165.83,232.29a52.58,52.58,0,0,1-21.54-19.69q-7.82-12.75-7.81-29.59t7.9-29.58a52.93,52.93,0,0,1,21.8-19.7q13.89-6.94,31.58-6.95a86.69,86.69,0,0,1,17.16,1.7,70.67,70.67,0,0,1,14.93,4.64l-1.71,13.59a76.91,76.91,0,0,0-30.56-6.64q-13.72,0-23.51,5.64a36.83,36.83,0,0,0-14.76,15.37,50.8,50.8,0,0,0,0,43.87,37.1,37.1,0,0,0,14.59,15.37q9.6,5.64,23.34,5.64a76.1,76.1,0,0,0,30.9-6.49l1.71,13.59a84.88,84.88,0,0,1-32.78,6.18Q1179.57,239.24,1165.83,232.29Z"/><path class="cls-4" d="M1249.25,128.94h16.31v44.65h61.1V128.94H1343V237.08h-16.3V187.49h-61.1v49.59h-16.31Z"/><path class="cls-4" d="M1432.56,207.88h-46l-11.5,29.2h-17.17L1401,128.94h17.16l43.08,108.14h-17.16Zm-5.15-13.28-17.85-45.11-17.85,45.11Z"/><path class="cls-4" d="M1476.15,128.94h16.31V237.08h-16.31Z"/><path class="cls-4" d="M1519.92,128.94h39q19.56,0,30.55,8.12t11,24.79q0,21.63-20.94,30.43l26.94,44.8h-19.91l-24.37-42.17h-25.06v42.17h-17.16Zm38.79,52.84q12,0,18.36-5.26t6.36-14.67q0-9.42-6.27-14.6t-18.45-5.17h-21.63v39.7Z"/><path class="cls-4" d="M559.67,281H576v44.65h46.74V281H639V389.13h-16.3V339.54H576v49.59H559.67Z"/><path class="cls-4" d="M802.59,384.34A52.61,52.61,0,0,1,781,364.65q-7.8-12.75-7.81-29.59t7.9-29.58a52.86,52.86,0,0,1,21.8-19.7q13.91-6.94,31.58-6.95a86.62,86.62,0,0,1,17.16,1.7,70.6,70.6,0,0,1,14.94,4.63l-1.72,13.6a76.86,76.86,0,0,0-30.55-6.64q-13.74,0-23.51,5.63a36.79,36.79,0,0,0-14.76,15.38,50.8,50.8,0,0,0,0,43.87,37,37,0,0,0,14.58,15.37Q820.26,378,834,378a76.05,76.05,0,0,0,30.89-6.49l1.72,13.59a85,85,0,0,1-32.79,6.18Q816.32,391.29,802.59,384.34Z"/><path class="cls-4" d="M886,281h16.31V389.13H886Zm18,50.83L948.47,281h19.74l-45.65,50.52,46.17,57.62H948.47Z"/><path class="cls-4" d="M983.15,281h73.29v13.29h-57V326h45.31v13.29H999.46v36.6H1058v13.29H983.15Z"/><path class="cls-4" d="M1170.71,281l-42.22,61.33v46.81h-16.3V342.32L1069.79,281h18.54l31.92,47,31.93-47Z"/><path class="cls-4" d="M711,478V433.84h24.87v5H717.08v15.12h18v5h-18V478Z"/><path class="cls-4" d="M765.22,478.79a21.85,21.85,0,0,1-9.22-1.86,19.71,19.71,0,0,1-6.76-5,21.46,21.46,0,0,1-4.14-7.29,27.52,27.52,0,0,1,0-17.51,21.46,21.46,0,0,1,4.14-7.29,19.71,19.71,0,0,1,6.76-5,23.76,23.76,0,0,1,18.43,0,19.71,19.71,0,0,1,6.76,5,21.48,21.48,0,0,1,4.15,7.29,27.7,27.7,0,0,1,0,17.51,21.48,21.48,0,0,1-4.15,7.29,19.71,19.71,0,0,1-6.76,5A21.8,21.8,0,0,1,765.22,478.79Zm0-4.91a15.3,15.3,0,0,0,6.69-1.39,13.37,13.37,0,0,0,4.84-3.84,17.38,17.38,0,0,0,2.92-5.74,25,25,0,0,0,0-14,16.89,16.89,0,0,0-2.92-5.7,13.94,13.94,0,0,0-4.84-3.85,16.49,16.49,0,0,0-13.39,0,14,14,0,0,0-4.84,3.85,17.07,17.07,0,0,0-2.92,5.7,25.21,25.21,0,0,0,0,14,17.57,17.57,0,0,0,2.92,5.74,13.45,13.45,0,0,0,4.84,3.84A15.34,15.34,0,0,0,765.22,473.88Z"/><path class="cls-4" d="M825.81,433.84h6.1v28.51a18.31,18.31,0,0,1-1.12,6.46,14.82,14.82,0,0,1-3.32,5.24,15.34,15.34,0,0,1-5.4,3.48,22.71,22.71,0,0,1-14.92,0,15.38,15.38,0,0,1-5.41-3.48,14.8,14.8,0,0,1-3.31-5.24,18.32,18.32,0,0,1-1.13-6.46V433.84h6.1v28.77a11.59,11.59,0,0,0,2.82,8.09c1.88,2.08,4.67,3.12,8.39,3.12s6.51-1,8.39-3.12a11.63,11.63,0,0,0,2.81-8.09Z"/><path class="cls-4" d="M875.34,478l-24.73-34.67V478h-5.83V433.84h5.83l24.73,34.68V433.84h5.84V478Z"/><path class="cls-4" d="M894.3,433.84h12.27a30.43,30.43,0,0,1,10.34,1.66,23.57,23.57,0,0,1,8,4.61,20,20,0,0,1,5.1,7,22.6,22.6,0,0,1,0,17.63,20.17,20.17,0,0,1-5.1,7,23.71,23.71,0,0,1-8,4.6A30.43,30.43,0,0,1,906.57,478H894.3Zm12.27,39.25a23.55,23.55,0,0,0,7.46-1.16,18.21,18.21,0,0,0,6.06-3.35,15.52,15.52,0,0,0,4.08-5.37,18.51,18.51,0,0,0,0-14.55,15.4,15.4,0,0,0-4.08-5.41A18.21,18.21,0,0,0,914,439.9a23.55,23.55,0,0,0-7.46-1.16H900.4v34.35Z"/><path class="cls-4" d="M977.31,478h-6.23l-4-10.67H946.42l-4,10.67h-6.23l17.57-44.15h6Zm-29-15.58h17l-8.49-23Z"/><path class="cls-4" d="M1010.93,433.84v5h-13V478h-6.11V438.81h-13v-5Z"/><path class="cls-4" d="M1026.64,478h-6.09V433.84h6.09Z"/><path class="cls-4" d="M1059.33,478.79a21.85,21.85,0,0,1-9.22-1.86,19.71,19.71,0,0,1-6.76-5,21.46,21.46,0,0,1-4.14-7.29,27.52,27.52,0,0,1,0-17.51,21.46,21.46,0,0,1,4.14-7.29,19.71,19.71,0,0,1,6.76-5,23.78,23.78,0,0,1,18.44,0,19.9,19.9,0,0,1,6.76,5,21.62,21.62,0,0,1,4.14,7.29,27.52,27.52,0,0,1,0,17.51,21.62,21.62,0,0,1-4.14,7.29,19.9,19.9,0,0,1-6.76,5A21.88,21.88,0,0,1,1059.33,478.79Zm0-4.91a15.37,15.37,0,0,0,6.7-1.39,13.42,13.42,0,0,0,4.83-3.84,17.19,17.19,0,0,0,2.92-5.74,25,25,0,0,0,0-14,16.71,16.71,0,0,0-2.92-5.7,14,14,0,0,0-4.83-3.85,16.52,16.52,0,0,0-13.4,0,14,14,0,0,0-4.84,3.85,16.87,16.87,0,0,0-2.91,5.7,25,25,0,0,0,0,14,17.36,17.36,0,0,0,2.91,5.74,13.45,13.45,0,0,0,4.84,3.84A15.37,15.37,0,0,0,1059.33,473.88Z"/><path class="cls-4" d="M1122.25,478l-24.73-34.67V478h-5.83V433.84h5.83l24.73,34.68V433.84h5.84V478Z"/><g class="cls-5"><path class="cls-4" d="M221.2,632.86l-7-1c-23.31-3.39-44.06-12.45-61.93-27.88a100.3,100.3,0,0,1-28.59-40,80.2,80.2,0,0,1-5.19-37.18,72.74,72.74,0,0,1,18.57-42.25c12.77-14.3,28.91-22.73,47.41-27a107.48,107.48,0,0,1,20.65-2.45,117.6,117.6,0,0,1,54.66,11.67,112.63,112.63,0,0,1,32.57,23c12.17,12.36,21.15,26.72,25.27,43.67,6.18,25.43,1.56,48.66-15.5,68.9-10.81,12.83-24.71,21-40.6,26a93,93,0,0,1-21.5,4.1,4.91,4.91,0,0,0-1.25.44Zm-9.47-154.62c-1.47.12-4.21.25-6.93.56-17.05,2-32,8.43-43.53,21.43-10.86,12.21-15.74,26.53-14.43,42.92.95,11.91,5.24,22.54,12,32.23a78.78,78.78,0,0,0,34,27.34,83.88,83.88,0,0,0,30.58,6.87,71.68,71.68,0,0,0,12.82-.89c15.1-2.17,28.44-8.1,39.15-19.23,13.81-14.36,18.87-31.55,15.27-51-3.46-18.62-13.92-33.05-29-44.11C247.26,483.77,230.91,478.56,211.73,478.24Z"/><path d="M717.77,446.44c-.3,1.21-.55,2.45-.92,3.65-3,9.8-12.2,16.71-22.06,16.63-8.93-.08-16.15-3.51-20.62-11.24-8.64-15-.25-33.25,16.58-35.74,13.21-2,22.63,5.93,26,16.19.42,1.28.67,2.6,1,3.91Zm-17.86,2c2.43-1.07,3.15-1.89,2.92-3.31a3.09,3.09,0,0,0-2.61-2.41,3.87,3.87,0,0,0-2.77,2.29C697.13,446.16,698,447.31,699.91,448.44ZM690.72,450c0-1.55-.91-2.53-2.26-2.45s-2.91,1.31-3,2.36,1.63,2.86,2.84,2.85A2.54,2.54,0,0,0,690.72,450Zm-8.5-13.21a2.93,2.93,0,0,0-2.47,2.8,2.76,2.76,0,0,0,2.83,2.69,2.38,2.38,0,0,0,2.09-2.69C684.6,438.09,683.42,436.73,682.22,436.76Zm26.89,1.56a24.55,24.55,0,0,0-1.38,2.5,2.06,2.06,0,0,0,1,2.56c.44.29,1.48.43,1.68.18a4.71,4.71,0,0,0,1.16-2.51C711.56,439.89,711,438.79,709.11,438.32ZM694.46,435c1.36,0,2.26-.66,2.27-1.75a2.64,2.64,0,0,0-2.17-2.41,2.8,2.8,0,0,0-2.48,2.43C692.11,434.16,693.18,435,694.46,435Zm3.37,23.5c-2.64-2.15-4.28-2-5.77.42C694.6,460.55,695.65,460.5,697.83,458.48Zm9.9-27.44c0-1.12-1.61-3.16-2.62-3.23s-1.48.69-1.12,1.37a8.51,8.51,0,0,0,2.32,2.77C707.07,432.51,707.59,431.79,707.73,431ZM678.5,451.18c-.28,2.87.38,3.86,3,4.64A4.79,4.79,0,0,0,678.5,451.18Zm-1.15-17.83c2.12-1,3.24-2.21,3.3-4.36C678.28,429.4,677.44,430.45,677.35,433.35Zm30.56,21.89c2-1.49,3.21-2.68,2.93-5.07C708.81,451.15,707.78,452.45,707.91,455.24Zm-16.45-31.62c-3.21-.54-4.08-.19-4.93,1.79A4.28,4.28,0,0,0,691.46,423.62ZM673,442.47l.61,0V439A2.69,2.69,0,0,0,673,442.47Zm41.72-5.2-.64,0,.54,2.35.37-.06Zm-27.1,26.32c.05-.19.11-.38.17-.57l-2.38-.74-.16.54Z"/><path class="cls-4" d="M227.49,147.05c1.42,5.54,2.87,11.11,4.27,16.69,4.63,18.42,12.93,35.13,23.38,50.88a456.51,456.51,0,0,0,33.78,45,163.9,163.9,0,0,0,41.25,35.05c7.09,4.18,14.05,8.62,21.31,12.5a72,72,0,0,0,23.07,7.65c3.61.56,6.46.31,8.7-3.13,1.71-2.64,4.11-4.84,6.46-7.52,2,1.95,3.89,3.63,5.52,5.55a4.1,4.1,0,0,0,3.5,1.59c7.82,0,14.4,6.39,15.6,11.73a24.12,24.12,0,0,1,.5,4.88A3.68,3.68,0,0,0,416.1,331a6.35,6.35,0,0,1,.58.58q13.35,13.49,26.68,27,15,15.27,30,30.58Q482.16,398.08,491,407q17.22,17.38,34.45,34.74c17,17.1,34.08,34.09,50.93,51.32a19.84,19.84,0,0,0,12.76,6.12c8.09.84,16.18,1.55,24.26,2.38,12.58,1.29,24.8-.84,36.86-4.06,7.08-1.9,13.18-5.82,18.95-10.27a79.11,79.11,0,0,1,7.87-5.49c6.09-3.6,11.31-2.93,16.5,1.92a44.07,44.07,0,0,1,10.22,14.82c2.63,6,1.18,11.21-3.12,15.87s-9.84,8.18-15.46,11.29A153,153,0,0,1,636.28,543a84.76,84.76,0,0,1-22.67.93c-3.63-.38-7.3-.36-10.93-.74a30.39,30.39,0,0,1-13-4,13.07,13.07,0,0,1-5.52-6.3,78.85,78.85,0,0,1-3.27-9,36.89,36.89,0,0,0-8.21-15.34c-4-4.43-7.91-8.88-12.06-13.13q-17.65-18.11-35.47-36-36.58-36.71-73.28-73.29Q435.73,370,419.47,354c-4.37-4.32-8.77-8.59-13.14-12.9-.8-.78-1.49-1.46-2.82-1.27-6.08.86-11.23-1.51-16.28-4.56q-8.93-5.37-18.11-10.34c-3.69-2-7.55-3.71-11.36-5.49a235.69,235.69,0,0,1-41.62-25.48q-41.64-31.21-83.07-62.7a242.06,242.06,0,0,1-24.91-21.09c-4.06-4.06-7.63-8.62-11.41-13-.53-.61-1-1.28-1.77-2.26-1.41,2.93-2.76,5.58-4,8.29a238.58,238.58,0,0,0-17.17,56.56c-1.58,9-2.67,18.05-3.38,27.17-.92,11.7-1.22,23.4-1,35.11.24,14.23,1.85,28.28,6.76,41.75,3.42,9.42,7.65,18.43,14.29,26.09,5.91,6.82,12.91,11.87,22.05,13.39,5.95,1,11.65,0,17.24-2s10.31-5.12,15.37-7.86a342.13,342.13,0,0,1,47.69-21.65,211.16,211.16,0,0,1,37.28-10.11c4.41-.71,8.87-1.19,13.32-1.56a90.76,90.76,0,0,1,10.68-.36c7.53.23,14.92,1.3,21.95,4.23,9.86,4.11,17.42,11,23.42,19.67a100.15,100.15,0,0,1,13.42,29.34c2.08,7.19,3.76,14.51,5.2,21.85s1.33,15.12,1.08,22.71c-.19,5.75-.67,11.49-1.23,17.22-.49,5.08-1.28,10.14-1.93,15.21-.13,1-.19,2-.31,3.23,3.17.68,6.17,1.4,9.2,2,6.92,1.3,13.84,2.66,20.92,2.55a27.72,27.72,0,0,0,11.22-2.23,6.35,6.35,0,0,0,3.6-3.21,5.7,5.7,0,0,0,.42-3.69,18.83,18.83,0,0,0-6.71-10.41c-6.29-5.25-13.57-8.57-21.37-10.87-2.9-.85-5.8-1.7-8.64-2.7-1.13-.4-2.51-.71-2.9-2.2.76-1.2,1.92-1,3-1a60.41,60.41,0,0,1,20.47,3.31,46.48,46.48,0,0,1,16,8.74,33.63,33.63,0,0,1,9.32,12.72,17.46,17.46,0,0,1,1.21,7.8c-.26,4.29-3.13,6.87-6.17,9.29s-6.86,3.39-10.5,4.6a62,62,0,0,1-13.72,2.52,183.08,183.08,0,0,1-22.22.31c-2.09-.07-4.17-.34-6.56-.54-.66,2.4-1.23,4.77-2,7.09-1.21,3.83-2.5,7.64-3.84,11.44a14.78,14.78,0,0,1-1.63,3.16c-1.7,2.56-3.47,2.62-5.07,0a8.88,8.88,0,0,1-1.05-3.89c-.38-4.79.55-9.47,1.45-14.15.28-1.42.52-2.84.8-4.41-3-.26-5.87-.31-8.64-.78a44.27,44.27,0,0,1-9-2.21c-6.33-2.52-7.59-7.87-5.75-13.52a7.18,7.18,0,0,1,5.07-4.63c3.83-1.17,7.61-.49,11.39.26l10.32,2a16.42,16.42,0,0,0,.43-2c.55-6.73,1.33-13.46,1.54-20.2a105.68,105.68,0,0,0-5.11-34.56,95.1,95.1,0,0,0-8.5-20.48c-6.63-11.29-16.65-17.41-29.49-19.19-10.29-1.43-20.44-.35-30.49,1.92a220.74,220.74,0,0,0-34.45,11c-17.8,7.22-35.47,14.74-53.27,21.95-10.09,4.09-20.33,7.77-31.06,9.91a94.11,94.11,0,0,1-26.45,1.87c-16-1.34-30.11-7.14-41.9-18.31-10.47-9.93-17.49-22-22.35-35.4a128.45,128.45,0,0,1-7.21-32c-.66-7.27-1-14.58-1.7-21.85-.87-9,.15-17.88,1.18-26.77q1.59-13.87,3.66-27.7c2.11-14.3,6.72-27.85,12.37-41.12a188.15,188.15,0,0,1,29.7-48.83,263.58,263.58,0,0,1,21-22.07c1.44-1.33,1-2.68.79-4a23.12,23.12,0,0,1,.62-9.76c1.63-6.62,5.72-11.33,11.55-14.64a26.88,26.88,0,0,1,10.32-3.48,23.47,23.47,0,0,1,11.69,2c1.93-1.33,3.89-2.84,6-4.12q8.3-5.1,16.7-10a8.17,8.17,0,0,1,5.14-1.26,3.71,3.71,0,0,1-.46,4,107.75,107.75,0,0,1-6.59,9.4C234.7,139.05,231.09,142.94,227.49,147.05ZM676.75,504.64c2.48-1.56,4.75-2.93,6.94-4.4a13.31,13.31,0,0,0,2.22-2c1.43-1.5,1.39-2.6-.19-3.89a4,4,0,0,0-3.57-.87c-3.21.71-5.89,2.46-8.53,4.25-1.33.91-1.37,1.68-.32,3S675.45,503.17,676.75,504.64Zm-8.52-10c2.07,0,3.43-1.27,4.94-2.2,1.87-1.14,3.74-2.29,5.66-3.36a5.76,5.76,0,0,1,5.29-.3c2,.89,3.93,1.93,5.85,3,1,.52,1.83,1.17,3,.77a5.52,5.52,0,0,0-1.78-3.93c-4-4.84-8.29-5.55-13.5-2-2.72,1.84-5.25,4-7.8,6A12.72,12.72,0,0,0,668.23,494.63Zm-52.6,26.42c-1.14-2.09-2-3.9-3.1-5.54a3.65,3.65,0,0,0-2.25-1.39,9.36,9.36,0,0,0-7.49,1.93c-1.76,1.44-1.5,3.66.63,4.32C607.16,521.53,611,522.25,615.63,521.05Zm-28.42.91c-.25.5-.39.66-.39.81-.1,6.51,7.48,14.21,14,14.17.42,0,.85-.47,1.38-.79Zm66-7.08c-.41-1-.64-1.63-1-2.26-1.25-2.31-2.11-2.7-4.64-2.11-1.33.31-2.64.67-4,1-3.86,1-4.23,1-2.32,5.47.08.17.19.31.27.47a1.81,1.81,0,0,0,2.52.9c2.39-.86,4.82-1.63,7.21-2.47A15.54,15.54,0,0,0,653.18,514.88Zm-31.78-.39c1.58,5.8,3,6.84,8.44,6,1.33-.19,3,.1,3.93-1.36a35,35,0,0,0-1.33-4.2,2.63,2.63,0,0,0-1.7-1.45A22.75,22.75,0,0,0,621.4,514.49Zm45.45-11.57a19.24,19.24,0,0,0-7.81,3.55c-1.07.9-.87,1.76.32,3.94.62,1.15,1.36,1.65,2.65,1.1s2.73-1,4-1.66a21.23,21.23,0,0,0,3.57-2,1.73,1.73,0,0,0,.15-3A20.53,20.53,0,0,0,666.85,502.92Zm-2.05,13.92c1.37,4,2.18,4.44,5.73,2.91a40.73,40.73,0,0,0,5.32-2.78,16.83,16.83,0,0,0,2.5-2.28c-2.05-2.52-3-3.1-4.7-2.48A39.26,39.26,0,0,0,664.8,516.84ZM659,523.76c-.77-1.66-1.2-3-3-3.2a14.7,14.7,0,0,0-9.81,2.64c-1.3.89-1.29,1.79-.58,3.36.58,1.31,1.53,1.42,2.7,1.07,2.79-.85,5.59-1.67,8.36-2.58A15.67,15.67,0,0,0,659,523.76Zm20.72-14.14a15.59,15.59,0,0,0,2.6,1.77,3.36,3.36,0,0,0,2.5.27c2.42-1.44,4.85-3,6.44-5.4.9-1.37,1.28-2.78.34-4.28C689.17,502.51,682.48,506.66,679.76,509.62Zm17.18-11.7-.52.24a44.65,44.65,0,0,0,0,4.63,9.22,9.22,0,0,1-3.65,8.67,53.91,53.91,0,0,0-4.19,3.95,9.11,9.11,0,0,0-1,2,9.65,9.65,0,0,0,2-.68c1.74-1.17,3.42-2.42,5.14-3.62,4.51-3.16,5.2-7.42,3.51-12.33A30.73,30.73,0,0,0,696.94,497.92Zm-88.82,28.3a9.86,9.86,0,0,0,7.37,5.32c1.83.33,3.73-.54,4-1.65s-.89-2.55-2.79-3.24C614,525.68,611.31,526.12,608.12,526.22Zm18.47-.13c.41,2.77,2.06,3.72,4.11,3.76a26.25,26.25,0,0,0,5.41-.67c.52-.1,1.32-.73,1.32-1.11a2.54,2.54,0,0,0-.94-1.8,4.54,4.54,0,0,0-2.3-.7c-1.83-.1-3.66-.08-5.49,0A10,10,0,0,0,626.59,526.09Z"/><path class="cls-4" d="M338,81.25c-.69,19-8.93,33.4-26,42.28-5.83,3-12.19,4.21-18.76,4.65a60.87,60.87,0,0,1-19.26-1.66,42.55,42.55,0,0,1-24.38-16.3c-11.68-15.83-12.89-32.86-4.64-50.47,6.89-14.7,18.85-22.91,34.84-25.28a59,59,0,0,1,26,1.74c10.93,3.32,19.09,10.2,25.15,19.71A45.53,45.53,0,0,1,338,81.25Z"/><path class="cls-4" d="M81,577.42c1.45,1.81,2.63,3.09,3.6,4.51,5.68,8.35,7.17,17.16,2.35,26.38-3.38,6.47-9,10.23-16,12-15.1,3.94-31.58-2.24-39.3-15.48-7.57-13-2.87-28.43,11.32-34.57l1.76-.76c-.1-.23-.13-.44-.23-.5-3.68-2.12-3.69-2.14-7.42-.21-5.81,3-10.29,7.25-12.56,13.53-2.19,6-1.23,11.87,1.17,17.62a15.7,15.7,0,0,1,.86,3.4c.07.36-.25.79-.57,1.67A11.55,11.55,0,0,1,24,603c-4.86-9-5.8-21,.85-29.86A24.43,24.43,0,0,1,35,565.45c.5-.22,1-.42,1.5-.66.15-.07.25-.25.44-.45a14.48,14.48,0,0,1-4.1-7.58A8.76,8.76,0,0,1,36.15,548c1.89-1.52,3.29-1,3.62,1.44a7.62,7.62,0,0,0,4.6,6,39.54,39.54,0,0,0,13.84,4.16C65.12,560.36,72,561,79,561.42c5.84.34,11.71.32,17.56.39a13.1,13.1,0,0,1,6.58,1.59c5.4,3.13,5.61,9.63.38,13A10.63,10.63,0,0,1,97,578.32l-13.93-.89C82.55,577.39,82,577.42,81,577.42Zm-20,35.8a21.14,21.14,0,0,0,9.09-2c8.5-3.85,13.06-13.06,8.13-22.57-5.14-9.89-19.13-15.76-30.49-10.58-8.16,3.71-12.88,13.11-8.11,22.13C44.15,608.85,51.69,612.5,61,613.22Z"/><path class="cls-4" d="M455.84,510.07a20.15,20.15,0,0,1,3.92.6A29.52,29.52,0,0,1,474.55,522c4.55,6.75,3.74,13.72-.46,20.36-3.73,5.9-9.32,9.52-15.77,11.75a81.68,81.68,0,0,1-21.23,4c-5.83.38-11.69.46-17.53.37-4.46-.07-8.93-.54-13.37-1a14.51,14.51,0,0,1-4.21-1.17c-5.13-2.22-7.19-6.5-5.49-12.71,1-3.59,3.84-5.09,7.28-5.17a27.39,27.39,0,0,1,7.31.87,104.36,104.36,0,0,0,28.5,3.38c7.57-.22,15.16-.84,22.32-3.73a23.47,23.47,0,0,0,3.9-2c6-3.93,6.8-10.21,1.71-15.3-2.77-2.77-5.92-5.16-8.91-7.7-.7-.59-1.53-1-2.2-1.65a7,7,0,0,1-.93-1.5Z"/><path class="cls-4" d="M384.94,621.44c-12.62-.24-22.88-5.16-29.79-15.93-4.56-7.1-5.46-14.84-2-22.76,2.67-6.21,7.47-10.32,13.68-12.73,13.53-5.25,30.52-1.06,39.77,10.51,6.24,7.8,8.11,16.5,4.34,25.94-2.59,6.49-7.71,10.53-14.1,13A28.11,28.11,0,0,1,384.94,621.44Zm-1.78-8.25c5.14-.07,9-1.06,12.47-3.31,7.63-5,9.75-14,5.18-21.86a20.84,20.84,0,0,0-6.64-7.2c-7.36-4.8-15.15-6.29-23.44-2.67A16,16,0,0,0,363.59,602C368.43,609.46,375.55,612.71,383.16,613.19Z"/><path class="cls-4" d="M80.93,539.94c5.77-.18,10.52-.32,15.27-.48a6,6,0,0,1,4.51,1.63,5.63,5.63,0,0,1,.31,8.08A8.63,8.63,0,0,1,95.79,552a68.52,68.52,0,0,1-16.13.25c-4.82-.42-9.63-.86-14.44-1.37a60.75,60.75,0,0,1-22-6.24c-4-2.1-7.6-4.75-9.79-8.91-3-5.76-2.09-11.3,2.39-15.23,8-7,17.35-9.85,28-8.06a8.21,8.21,0,0,1,2.56.93c1.26.7,1.28,1.84,0,2.51a14.41,14.41,0,0,1-2.84,1c-3.15.93-6.36,1.7-9.45,2.79a11.5,11.5,0,0,0-5.72,4.09,5.4,5.4,0,0,0-.34,6.38,14.36,14.36,0,0,0,9.06,6.66,107.18,107.18,0,0,0,13.4,2.63C74.24,539.87,78.11,539.81,80.93,539.94Z"/><path class="cls-4" d="M371.59,566.16c-3,.89-5.68,1.35-8,2.43-5.25,2.38-9.71,5.81-12.53,11a21.69,21.69,0,0,0-1.23,18.52c.46,1.28,1,2.55,1.47,3.83a3.19,3.19,0,0,1-.37,3.43,7.49,7.49,0,0,1-1.75-1.54c-5.14-8.83-6.06-21.64.7-30.25a24.9,24.9,0,0,1,16.24-9.29,12.07,12.07,0,0,1,4.3.53C370.82,564.93,371.12,565.61,371.59,566.16Z"/><path class="cls-4" d="M31.42,563.17c.13,1.71-1,1.67-1.74,2.08-5.71,3.17-10,7.6-12.11,13.89-1.29,3.78-.65,7.56-.16,11.36a19.79,19.79,0,0,1,.12,3.53,1.25,1.25,0,0,1-.87.83,1.25,1.25,0,0,1-1-.62,18.15,18.15,0,0,1-.75-3.18c-.4-2.6-1.12-5.23-1-7.82.2-4.38,1-8.76,4.15-12.15a66.76,66.76,0,0,1,6.35-6A9.58,9.58,0,0,1,31.42,563.17Z"/><path class="cls-4" d="M358.05,564.78c-.23,1.76-1.32,1.73-2.06,2.15-6,3.42-10.53,8.08-12.34,15-.76,2.9-.44,5.79-.1,8.7.22,1.88.29,3.77.42,5.48-1.12.73-1.87.5-2.05-.32-1.7-7.85-3.25-15.8,2.28-22.81,2.74-3.47,5.75-7,10.49-7.92A29.66,29.66,0,0,1,358.05,564.78Z"/><path class="cls-4" d="M699.91,448.44c-1.95-1.13-2.78-2.28-2.46-3.43a3.87,3.87,0,0,1,2.77-2.29,3.09,3.09,0,0,1,2.61,2.41C703.06,446.55,702.34,447.37,699.91,448.44Z"/><path class="cls-4" d="M690.72,450a2.54,2.54,0,0,1-2.39,2.76c-1.21,0-2.91-1.69-2.84-2.85s1.61-2.29,3-2.36S690.7,448.42,690.72,450Z"/><path class="cls-4" d="M682.22,436.76c1.2,0,2.38,1.33,2.45,2.8a2.38,2.38,0,0,1-2.09,2.69,2.76,2.76,0,0,1-2.83-2.69A2.93,2.93,0,0,1,682.22,436.76Z"/><path class="cls-4" d="M709.11,438.32c1.87.47,2.45,1.57,2.42,2.73a4.71,4.71,0,0,1-1.16,2.51c-.2.25-1.24.11-1.68-.18a2.06,2.06,0,0,1-1-2.56A24.55,24.55,0,0,1,709.11,438.32Z"/><path class="cls-4" d="M694.46,435c-1.28,0-2.35-.82-2.38-1.73a2.8,2.8,0,0,1,2.48-2.43,2.64,2.64,0,0,1,2.17,2.41C696.72,434.32,695.82,435,694.46,435Z"/><path class="cls-4" d="M697.83,458.48c-2.18,2-3.23,2.07-5.77.42C693.55,456.49,695.19,456.33,697.83,458.48Z"/><path class="cls-4" d="M707.73,431c-.14.75-.66,1.47-1.42.91a8.51,8.51,0,0,1-2.32-2.77c-.36-.68.17-1.44,1.12-1.37S707.77,429.92,707.73,431Z"/><path class="cls-4" d="M678.5,451.18a4.79,4.79,0,0,1,3,4.64C678.88,455,678.22,454.05,678.5,451.18Z"/><path class="cls-4" d="M677.35,433.35c.09-2.9.93-4,3.3-4.36C680.59,431.14,679.47,432.38,677.35,433.35Z"/><path class="cls-4" d="M707.91,455.24c-.13-2.79.9-4.09,2.93-5.07C711.12,452.56,709.89,453.75,707.91,455.24Z"/><path class="cls-4" d="M691.46,423.62a4.28,4.28,0,0,1-4.93,1.79C687.38,423.43,688.25,423.08,691.46,423.62Z"/><path class="cls-4" d="M673,442.47a2.69,2.69,0,0,1,.61-3.47v3.49Z"/><path class="cls-4" d="M714.76,437.27l.27,2.27-.37.06-.54-2.35Z"/><path class="cls-4" d="M687.66,463.59l-2.37-.77.16-.54,2.38.74C687.77,463.21,687.71,463.4,687.66,463.59Z"/></g></svg>